<svg width="54" height="56" viewBox="0 0 54 56" fill="none" xmlns="http://www.w3.org/2000/svg">
<path d="M53.536 22.0588C52.2159 14.971 48.2145 8.82121 42.2691 4.74236C36.3233 0.663193 29.1458 -0.85633 22.0584 0.463948C14.9696 1.78401 8.81951 5.78573 4.7411 11.7317C0.662788 17.6774 -0.856195 24.8561 0.463975 31.945C1.07875 35.2532 2.2808 38.3663 4.0384 41.2046C3.63689 45.1526 2.79051 48.7565 0.148657 53.2981C-0.0282569 53.6023 -0.0457326 53.9738 0.101948 54.2932C0.24952 54.6126 0.543802 54.8399 0.89008 54.9022C2.12621 55.1248 3.47001 55.2317 4.86893 55.2317C9.20667 55.2317 14.0675 54.2026 17.8388 52.3962C22.3409 54.0258 27.206 54.4219 31.9416 53.5403C39.0304 52.2203 45.1806 48.2185 49.2589 42.2726C53.3372 36.3269 54.8562 29.1481 53.536 22.0588ZM31.5466 51.4193C27.046 52.257 22.4184 51.8409 18.1644 50.2155C17.8804 50.1071 17.5637 50.1234 17.2922 50.2606C13.1997 52.3318 7.35706 53.397 2.7891 52.9813C5.23861 48.3117 5.89589 44.4914 6.22189 41.0443C6.24444 40.805 6.18651 40.5648 6.05706 40.3622C4.34023 37.6738 3.17206 34.7093 2.58501 31.5504C0.077676 18.0859 8.9906 5.09209 22.4535 2.58498C28.9738 1.37053 35.578 2.76837 41.0485 6.52132C46.5188 10.2743 50.2003 15.9326 51.415 22.4539C53.9223 35.9183 45.0094 48.9123 31.5466 51.4193Z" fill="#CB8734"/>
<path d="M20.9411 37.2603H24.3963C24.992 37.2603 25.475 36.7773 25.475 36.1816V31.5062C25.475 30.9105 24.992 30.4275 24.3963 30.4275H20.9411C20.5694 30.4275 20.2555 30.1135 20.2555 29.7419V27.72H22.7788C24.2655 27.72 25.4751 26.5104 25.4751 25.0237V19.4401C25.4751 17.9534 24.2655 16.7438 22.7788 16.7438H16.1192C14.6324 16.7438 13.4229 17.9534 13.4229 19.4401V29.7419C13.4226 33.8876 16.7954 37.2603 20.9411 37.2603ZM15.5801 19.4401C15.5801 19.148 15.8268 18.9013 16.119 18.9013H22.7786C23.0707 18.9013 23.3174 19.148 23.3174 19.4401V25.0237C23.3174 25.3158 23.0707 25.5625 22.7786 25.5625H19.1766C18.5809 25.5625 18.0978 26.0456 18.0978 26.6413V29.7419C18.0978 31.3095 19.3732 32.5849 20.9409 32.5849H23.3173V35.1028H20.9409C17.9849 35.1028 15.58 32.6979 15.58 29.7419V19.4401H15.5801Z" fill="#CB8734"/>
<path d="M37.8805 27.72C39.3672 27.72 40.5768 26.5104 40.5768 25.0237V19.4401C40.5768 17.9534 39.3672 16.7438 37.8805 16.7438H31.2208C29.7324 16.7438 28.5215 17.9534 28.5215 19.4401V29.7419C28.5215 33.8876 31.8956 37.2603 36.0429 37.2603H39.4982C40.0938 37.2603 40.5769 36.7773 40.5769 36.1816V31.5062C40.5769 30.9105 40.0938 30.4275 39.4982 30.4275H36.0429C35.6697 30.4275 35.3543 30.1135 35.3543 29.7419V27.72H37.8805ZM36.0428 32.5851H38.4193V35.103H36.0428C33.0851 35.103 30.6789 32.698 30.6789 29.742V19.4402C30.6789 19.1481 30.9271 18.9014 31.2207 18.9014H37.8804C38.1725 18.9014 38.4192 19.1481 38.4192 19.4402V25.0238C38.4192 25.3159 38.1725 25.5626 37.8804 25.5626H34.2753C33.6796 25.5626 33.1966 26.0457 33.1966 26.6414V29.742C33.1967 31.3095 34.4735 32.5851 36.0428 32.5851Z" fill="#CB8734"/>
<path d="M12.3093 13.3878C12.5855 13.3878 12.8614 13.2824 13.0721 13.0719L13.0751 13.0689C13.4963 12.6476 13.4948 11.966 13.0735 11.5448C12.6521 11.1235 11.9677 11.1251 11.5464 11.5463C11.1252 11.9676 11.1252 12.6506 11.5464 13.072C11.7572 13.2825 12.0332 13.3878 12.3093 13.3878Z" fill="#CB8734"/>
<path d="M29.4334 5.28223C24.6073 4.74437 19.6846 5.84091 15.5721 8.36938C15.0645 8.68147 14.9061 9.34587 15.2181 9.85331C15.5302 10.361 16.1946 10.5192 16.7021 10.2072C24.4889 5.41955 34.4507 6.59787 40.9277 13.0723C48.6086 20.7533 48.6086 33.2513 40.9279 40.9322C33.2464 48.6108 20.7502 48.6109 13.0715 40.9323C6.59734 34.4579 5.41817 24.4943 10.2039 16.7025C10.5157 16.1948 10.3569 15.5305 9.84922 15.2187C9.34167 14.907 8.67738 15.0658 8.36541 15.5734C5.83823 19.688 4.74255 24.6116 5.28009 29.4373C5.83413 34.4103 8.00079 38.9128 11.5459 42.458C15.8062 46.7183 21.4011 48.8483 26.9984 48.8477C32.5942 48.8472 38.1923 46.7173 42.4533 42.458C46.5818 38.3293 48.8556 32.8403 48.8556 27.0024C48.8556 21.1645 46.5819 15.6755 42.453 11.5467C38.9582 8.05299 34.3344 5.82829 29.4334 5.28223Z" fill="#CB8734"/>
</svg>
